<?xml version="1.0" encoding="UTF-8"?>
<!DOCTYPE svg PUBLIC "-//W3C//DTD SVG 1.1//EN" "http://www.w3.org/Graphics/SVG/1.1/DTD/svg11.dtd">
<svg xmlns="http://www.w3.org/2000/svg" version="1.1" width="128px" height="128px" style="shape-rendering:geometricPrecision; text-rendering:geometricPrecision; image-rendering:optimizeQuality; fill-rule:evenodd; clip-rule:evenodd" xmlns:xlink="http://www.w3.org/1999/xlink">
<g><path style="opacity:0.912" fill="#f5fba6" d="M 45.5,35.5 C 47.3432,36.2829 49.3432,36.9495 51.5,37.5C 52.1924,38.0253 52.6924,38.6919 53,39.5C 53.3333,39.1667 53.6667,38.8333 54,38.5C 54,39.8333 54,41.1667 54,42.5C 55.8398,42.5123 57.6731,43.3456 59.5,45C 58.8333,45.3333 58.1667,45.6667 57.5,46C 59.5873,46.7922 61.4207,47.9588 63,49.5C 63.3333,49.1667 63.6667,48.8333 64,48.5C 62.6991,51.7142 63.8658,53.5475 67.5,54C 66.2888,54.8928 66.2888,55.7261 67.5,56.5C 69.1997,55.3422 71.033,55.3422 73,56.5C 73.4561,57.7441 72.9561,58.5774 71.5,59C 72.1258,59.7504 72.6258,60.5838 73,61.5C 73.3333,61.1667 73.6667,60.8333 74,60.5C 75.2635,63.8337 77.5969,66.8337 81,69.5C 81.3333,68.8333 81.6667,68.1667 82,67.5C 82.3333,68.8333 82.6667,70.1667 83,71.5C 83.7175,70.5494 84.5509,70.3828 85.5,71C 84.1669,72.8402 84.3335,73.3402 86,72.5C 86.3333,73.5 86.6667,74.5 87,75.5C 88.3639,74.7417 89.5305,75.2417 90.5,77C 90.1667,77.3333 89.8333,77.6667 89.5,78C 93.2509,77.9174 95.2509,79.7508 95.5,83.5C 97.026,84.9056 98.6927,86.0723 100.5,87C 99.3463,87.9138 99.513,88.7471 101,89.5C 102.016,88.3659 102.683,88.6992 103,90.5C 104.115,89.0001 104.948,87.3334 105.5,85.5C 103.666,82.836 101.666,80.336 99.5,78C 100.01,76.1739 100.844,76.0072 102,77.5C 102.333,76.8333 102.667,76.1667 103,75.5C 104.559,77.2166 105.392,79.2166 105.5,81.5C 108.287,81.7796 110.453,83.113 112,85.5C 112.333,85.1667 112.667,84.8333 113,84.5C 113.427,87.4927 114.594,87.9927 116.5,86C 115.663,84.9887 115.33,83.8221 115.5,82.5C 116.5,82.5 117.5,82.5 118.5,82.5C 115.577,90.0996 112.743,97.7663 110,105.5C 107.778,109.388 104.612,112.221 100.5,114C 77.169,114.5 53.8357,114.667 30.5,114.5C 33.1489,112.891 36.1489,112.057 39.5,112C 49.5,111.667 59.5,111.333 69.5,111C 67.5,110.667 65.5,110.333 63.5,110C 65.3008,109.683 65.6341,109.016 64.5,108C 65.3333,107.833 66.1667,107.667 67,107.5C 72.0195,109.221 77.1862,109.887 82.5,109.5C 82.7733,107.549 82.1066,106.049 80.5,105C 74.5,104.667 68.5,104.333 62.5,104C 68.3863,102.944 74.3863,102.777 80.5,103.5C 79.2216,102.209 78.5549,100.209 78.5,97.5C 77.1779,97.67 76.0113,97.3366 75,96.5C 74.5291,94.7536 73.8624,93.087 73,91.5C 72.6667,91.8333 72.3333,92.1667 72,92.5C 70.5093,90.9963 68.676,90.1629 66.5,90C 66.9574,89.586 67.2907,89.086 67.5,88.5C 66.5,87.6667 65.5,86.8333 64.5,86C 64.8333,85.6667 65.1667,85.3333 65.5,85C 63.2023,83.0612 60.8689,82.0612 58.5,82C 59.4506,81.2825 59.6172,80.4491 59,79.5C 52.8263,72.6596 46.3263,66.1596 39.5,60C 40.6457,57.4428 39.6457,56.1095 36.5,56C 38.1066,54.951 38.7733,53.451 38.5,51.5C 40.8617,46.1166 43.195,40.7832 45.5,35.5 Z"/></g>
<g><path style="opacity:0.965" fill="#f6faa8" d="M 127.5,39.5 C 127.5,47.1667 127.5,54.8333 127.5,62.5C 126.833,62.5 126.5,62.8333 126.5,63.5C 125.167,63.5 124.5,64.1667 124.5,65.5C 122.939,71.4624 120.939,77.1291 118.5,82.5C 117.5,82.5 116.5,82.5 115.5,82.5C 115.33,83.8221 115.663,84.9887 116.5,86C 114.594,87.9927 113.427,87.4927 113,84.5C 112.667,84.8333 112.333,85.1667 112,85.5C 110.453,83.113 108.287,81.7796 105.5,81.5C 105.392,79.2166 104.559,77.2166 103,75.5C 102.667,76.1667 102.333,76.8333 102,77.5C 100.844,76.0072 100.01,76.1739 99.5,78C 101.666,80.336 103.666,82.836 105.5,85.5C 104.948,87.3334 104.115,89.0001 103,90.5C 102.683,88.6992 102.016,88.3659 101,89.5C 99.513,88.7471 99.3463,87.9138 100.5,87C 98.6927,86.0723 97.026,84.9056 95.5,83.5C 95.2509,79.7508 93.2509,77.9174 89.5,78C 89.8333,77.6667 90.1667,77.3333 90.5,77C 89.5305,75.2417 88.3639,74.7417 87,75.5C 86.6667,74.5 86.3333,73.5 86,72.5C 84.3335,73.3402 84.1669,72.8402 85.5,71C 84.5509,70.3828 83.7175,70.5494 83,71.5C 82.6667,70.1667 82.3333,68.8333 82,67.5C 81.6667,68.1667 81.3333,68.8333 81,69.5C 77.5969,66.8337 75.2635,63.8337 74,60.5C 73.6667,60.8333 73.3333,61.1667 73,61.5C 72.6258,60.5838 72.1258,59.7504 71.5,59C 72.9561,58.5774 73.4561,57.7441 73,56.5C 71.033,55.3422 69.1997,55.3422 67.5,56.5C 66.2888,55.7261 66.2888,54.8928 67.5,54C 63.8658,53.5475 62.6991,51.7142 64,48.5C 63.6667,48.8333 63.3333,49.1667 63,49.5C 61.4207,47.9588 59.5873,46.7922 57.5,46C 58.1667,45.6667 58.8333,45.3333 59.5,45C 57.6731,43.3456 55.8398,42.5123 54,42.5C 54,41.1667 54,39.8333 54,38.5C 53.6667,38.8333 53.3333,39.1667 53,39.5C 52.6924,38.6919 52.1924,38.0253 51.5,37.5C 49.3432,36.9495 47.3432,36.2829 45.5,35.5C 48.0627,29.3746 50.896,23.3746 54,17.5C 60.4851,12.2386 66.9851,12.2386 73.5,17.5C 79.3523,29.0452 85.0189,40.7118 90.5,52.5C 97.3066,47.8602 103.973,43.0269 110.5,38C 116.456,35.8299 122.123,36.3299 127.5,39.5 Z"/></g>
<g><path style="opacity:0.915" fill="#f1faa1" d="M 38.5,51.5 C 38.7733,53.451 38.1066,54.951 36.5,56C 39.6457,56.1095 40.6457,57.4428 39.5,60C 46.3263,66.1596 52.8263,72.6596 59,79.5C 59.6172,80.4491 59.4506,81.2825 58.5,82C 60.8689,82.0612 63.2023,83.0612 65.5,85C 65.1667,85.3333 64.8333,85.6667 64.5,86C 65.5,86.8333 66.5,87.6667 67.5,88.5C 67.2907,89.086 66.9574,89.586 66.5,90C 68.676,90.1629 70.5093,90.9963 72,92.5C 72.3333,92.1667 72.6667,91.8333 73,91.5C 73.8624,93.087 74.5291,94.7536 75,96.5C 76.0113,97.3366 77.1779,97.67 78.5,97.5C 78.5549,100.209 79.2216,102.209 80.5,103.5C 74.3863,102.777 68.3863,102.944 62.5,104C 68.5,104.333 74.5,104.667 80.5,105C 82.1066,106.049 82.7733,107.549 82.5,109.5C 77.1862,109.887 72.0195,109.221 67,107.5C 66.1667,107.667 65.3333,107.833 64.5,108C 65.6341,109.016 65.3008,109.683 63.5,110C 65.5,110.333 67.5,110.667 69.5,111C 59.5,111.333 49.5,111.667 39.5,112C 36.1489,112.057 33.1489,112.891 30.5,114.5C 25.6101,113.809 21.7768,111.476 19,107.5C 12.5624,91.3261 6.06245,75.3261 -0.5,59.5C -0.5,53.1667 -0.5,46.8333 -0.5,40.5C 4.7326,36.6071 10.3993,35.7738 16.5,38C 23.3066,42.6398 29.9732,47.4731 36.5,52.5C 37.1835,52.1373 37.8501,51.8039 38.5,51.5 Z"/></g>
<g><path style="opacity:0.004" fill="#66ff65" d="M 126.5,63.5 C 126.167,64.5 125.5,65.1667 124.5,65.5C 124.5,64.1667 125.167,63.5 126.5,63.5 Z"/></g>
</svg>
